<svg width="48" height="48" viewBox="0 0 48 48" fill="none" xmlns="http://www.w3.org/2000/svg">
<path d="M42.9043 0H5.0957C2.28138 0 0 2.28138 0 5.0957V42.9043C0 45.7186 2.28138 48 5.0957 48H42.9043C45.7186 48 48 45.7186 48 42.9043V5.0957C48 2.28138 45.7186 0 42.9043 0ZM20.8378 37.2065H15.4945L5.5482 10.7935H15.5768L23.1393 31.028L20.8378 37.2065ZM33.8486 37.2065H28.5052L18.559 10.7935H28.5876L36.15 31.028L33.8486 37.2065ZM37.4598 24.1807L32.4188 10.7935H42.4474L42.4512 10.8042L37.4598 24.1807Z" fill="white"/>
</svg>
